{"title":"Return 2011 VODRIP x264 AC3 - HOPE","uid":7096707,"size":1296472824,"categoryP":"video","categoryS":"movies","magnet":"?xt=urn:btih:06994cbea8df981b67bce5abe6930ad7bd0d9ae3&amp;dn=Return+2011+VODRIP+x264+AC3+-+HOPE&amp;tr=udp%3A%2F%2Ftracker.openbittorrent.com%3A80&amp;tr=udp%3A%2F%2Fopen.demonii.com%3A1337&amp;tr=udp%3A%2F%2Ftracker.coppersurfer.tk%3A6969&amp;tr=udp%3A%2F%2Fexodus.desync.com%3A6969","seeders":1,"leechers":0,"uploader":"LegendET","files":4,"time":1331577166,"description":"[center]\n\n[img]http://www.shotpix.com/images/71118521242716557701.jpeg[/img]\n\n\nPlot: \nA soldier returns to her family, friends, and old job after a tour of duty, though she finds herself struggling to find her place in her everyday life. \n\nIMDB:  &lt;a href=&quot;\nhttp://www.imdb.com/title/tt1677082/&quot; rel=&quot;nofollow&quot; target=&quot;_NEW&quot;&gt;\nhttp://www.imdb.com/title/tt1677082/&lt;/a&gt;\n\nInformation:\nFormat                           : Matroska\nFormat version                   : Version 2\nFile size                        : 1.20 GiB\nDuration                         : 1h 37mn\nOverall bit rate                 : 1 765 Kbps\nEncoded date                     : UTC 2012-03-12 11:20:40\nWriting application              : mkvmerge v5.3.0 ('I could have danced') built on Feb  9 2012 10:38:07\nWriting library                  : libebml v1.2.3 + libmatroska v1.3.0\n\nVideo\nID                               : 1\nFormat                           : AVC\nFormat/Info                      : Advanced Video Codec\nFormat profile                   : &lt;a class=&quot;__cf_email__&quot; href=&quot;/cdn-cgi/l/email-protection&quot; data-cfemail=&quot;c189a8a6a9818df4eff0&quot;&gt;[email&amp;#160;protected]&lt;/a&gt;&lt;script cf-hash='f9e31' type=&quot;text/javascript&quot;&gt;\n/* &lt;![CDATA[ */!function(){try{var t=&quot;currentScript&quot;in document?document.currentScript:function(){for(var t=document.getElementsByTagName(&quot;script&quot;),e=t.length;e--;)if(t[e].getAttribute(&quot;cf-hash&quot;))return t[e]}();if(t&amp;&amp;t.previousSibling){var e,r,n,i,c=t.previousSibling,a=c.getAttribute(&quot;data-cfemail&quot;);if(a){for(e=&quot;&quot;,r=parseInt(a.substr(0,2),16),n=2;a.length-n;n+=2)i=parseInt(a.substr(n,2),16)^r,e+=String.fromCharCode(i);e=document.createTextNode(e),c.parentNode.replaceChild(e,c)}}}catch(u){}}();/* ]]&gt; */&lt;/script&gt;\nFormat settings, CABAC           : Yes\nFormat settings, ReFrames        : 6 frames\nCodec ID                         : V_MPEG4/ISO/AVC\nDuration                         : 1h 37mn\nBit rate                         : 1 508 Kbps\nWidth                            : 720 pixels\nHeight                           : 480 pixels\nDisplay aspect ratio             : 3:2\nFrame rate                       : 29.970 fps\nStandard                         : NTSC\nColor space                      : YUV\nChroma subsampling               : 4:2:0\nBit depth                        : 8 bits\nScan type                        : Progressive\nBits/(Pixel*Frame)               : 0.146\nStream size                      : 1.00 GiB (84%)\nWriting library                  : x264 core 122 r2183 c522ad1\n\nAudio\nID                               : 2\nFormat                           : AC-3\nFormat/Info                      : Audio Coding 3\nMode extension                   : CM (complete main)\nCodec ID                         : A_AC3\nDuration                         : 1h 37mn\nBit rate mode                    : Constant\nBit rate                         : 256 Kbps\nChannel(s)                       : 2 channels\nChannel positions                : Front: L R\nSampling rate                    : 48.0 KHz\nBit depth                        : 16 bits\nCompression mode                 : Lossy\nStream size                      : 178 MiB (15%)\n\nNotes: \nA new VOD added my own touch to bring \nmore life to video, Audio UNTOUCHED \n\nSource: \nVideo - HK INC\nAudio - HK INC\n...Thanks \n\nScreene:\n\n\n[img]http://www.shotpix.com/images/49071556505915303802.jpg[/img]\n[img]http://www.shotpix.com/images/93825344630429849910.jpg[/img]\n[img]http://www.shotpix.com/images/80458360673513539967.jpg[/img]\n[img]http://www.shotpix.com/images/78373587340898924041.jpg[/img]\n[img]http://www.shotpix.com/images/53867486348616410070.jpg[/img]\n[img]http://www.shotpix.com/images/69937449647606976828.jpg[/img][/center]","torrent":{"xt":"urn:btih:06994cbea8df981b67bce5abe6930ad7bd0d9ae3","amp;dn":"Return+2011+VODRIP+x264+AC3+-+HOPE","amp;tr":["udp%3A%2F%2Ftracker.openbittorrent.com%3A80","udp%3A%2F%2Fopen.demonii.com%3A1337","udp%3A%2F%2Ftracker.coppersurfer.tk%3A6969","udp%3A%2F%2Fexodus.desync.com%3A6969"],"infoHash":"06994cbea8df981b67bce5abe6930ad7bd0d9ae3","infoHashBuffer":{"type":"Buffer","data":[6,153,76,190,168,223,152,27,103,188,229,171,230,147,10,215,189,13,154,227]},"announce":[],"urlList":[]}}